# xmcd
#
# Track frame offsets: 
#        150
#        21061
#        45213
#        65086
#        83753
#        103697
#        125240
#        148444
#        168451
#        204791
#        221577
#        248420
#        271538
#        283442
#        301787
#        318244
#        332672
#
# Disc length: 4700 seconds
#
# Revision: 0
# Processed by: cddbd v1.5.2PL0 Copyright (c) Steve Scherf et al.
# Submitted via: ExactAudioCopy v0.95b4
#
DISCID=f2125a11
DTITLE=Alvin Lee - The Best Songs CD1
DYEAR=2010
DGENRE=Blues-rock
TTITLE0=Detroit Diesel
TTITLE1=Fool No More
TTITLE2=Don't Want To Fight
TTITLE3=Lost In Love
TTITLE4=No More Lonely Nights
TTITLE5=One Lonely Hour
TTITLE6=Can't Stop
TTITLE7=Take The Money
TTITLE8=Outside My Window
TTITLE9=Dangerous World
TTITLE10=Give Me Your Love
TTITLE11=It Don't Come Easy
TTITLE12=Dustbin' City
TTITLE13=Moving The Blues
TTITLE14=I Hear You Knockin'
TTITLE15=Ride On Cowboy
TTITLE16=Jenny, Jenny
EXTD=
EXTT0=
EXTT1=
EXTT2=
EXTT3=
EXTT4=
EXTT5=
EXTT6=
EXTT7=
EXTT8=
EXTT9=
EXTT10=
EXTT11=
EXTT12=
EXTT13=
EXTT14=
EXTT15=
EXTT16=
PLAYORDER=
